<svg width="180" height="38" viewBox="0 0 180 38" fill="none" xmlns="http://www.w3.org/2000/svg">
<path fill-rule="evenodd" clip-rule="evenodd" d="M0 -0.00769043H39.4467V37.984H0V-0.00769043ZM4.93084 32.7437V5.23254H34.5159V32.7437H22.8051V26.1935H16.6416V32.7437H4.93084ZM107.818 29.095C105.814 29.0481 104.207 28.3444 102.998 26.9841C101.789 25.6237 101.104 23.8036 100.945 21.5238C100.857 20.398 100.941 19.0751 101.197 17.5553C101.453 16.026 101.908 14.6187 102.561 13.3334C103.214 12.048 104.031 10.9785 105.011 10.1248C106.653 8.68932 108.542 7.99506 110.678 8.04196C111.994 8.07012 113.141 8.39384 114.121 9.01304C115.11 9.62287 115.9 10.5047 116.491 11.6587C117.083 12.8127 117.427 14.1262 117.524 15.5992C117.595 16.6405 117.533 17.8273 117.339 19.1596C117.154 20.4824 116.805 21.749 116.293 22.9593C115.79 24.1601 115.136 25.2203 114.333 26.1397C113.53 27.0591 112.58 27.7909 111.486 28.3351C110.4 28.8698 109.177 29.1231 107.818 29.095ZM112.982 15.5569C112.894 13.2114 112.038 11.9918 110.413 11.898C109.16 11.8323 108.122 12.3623 107.301 13.4882C106.48 14.6046 105.937 16.2559 105.673 18.4418C105.505 19.7928 105.443 20.8389 105.487 21.5801C105.575 23.9631 106.441 25.1875 108.083 25.2531C109.16 25.3094 110.087 24.9013 110.864 24.0288C111.64 23.1469 112.201 21.8709 112.545 20.2009C112.89 18.5216 113.035 16.9736 112.982 15.5569ZM65.4686 28.8136H69.997L73.3475 8.32342H57.5762L54.2393 28.8136H58.7682L61.4956 12.1372H68.1831L65.4686 28.8136ZM96.1668 8.32342H91.5189L82.872 20.975L84.951 8.32342H80.4091L77.0586 28.8136H81.7201L90.3669 16.1761L88.2879 28.8136H92.8299L96.1668 8.32342ZM133.106 28.8136H137.609L140.959 8.32342H136.443L135.119 16.4576H128.498L129.836 8.32342H125.294L121.956 28.8136H126.485L127.889 20.2573H134.497L133.106 28.8136ZM157.415 20.1306H150.33L149.523 25.0139H157.905L157.283 28.8136H144.372L147.709 8.32342H160.646L160.024 12.1372H151.628L150.913 16.4576H158.011L157.415 20.1306ZM167.555 28.8136L168.693 21.8616L171.872 21.8756C173.346 21.8756 174.674 21.6083 175.857 21.0735C177.049 20.5387 178.007 19.7647 178.731 18.7515C179.455 17.7382 179.87 16.542 179.976 15.1628C180.125 13.1457 179.583 11.5039 178.347 10.2374C177.12 8.97079 175.434 8.33751 173.288 8.33751L166.363 8.32342L163.026 28.8136H167.555ZM172.044 18.076L169.316 18.0478L170.282 12.1372L173.447 12.1513C174.004 12.1888 174.449 12.3764 174.785 12.7142C175.129 13.0426 175.336 13.4929 175.407 14.0652C175.531 15.1816 175.288 16.1245 174.679 16.8938C174.07 17.6538 173.191 18.0478 172.044 18.076Z" fill="#607CE6"/>
</svg>
